<svg width="467" height="396" viewBox="0 0 467 396" fill="none" xmlns="http://www.w3.org/2000/svg">
<path d="M203.851 343.899C207.361 349.529 210.611 354.699 212.461 357.609C212.861 358.229 213.241 358.839 213.611 359.419C222.351 373.139 224.521 376.539 223.591 378.329C223.241 378.999 222.471 379.439 221.451 380.109C219.021 381.699 218.871 381.659 216.701 378.909C214.511 376.119 209.701 368.489 205.741 361.509C204.861 359.969 198.621 349.969 190.771 337.519C199.421 351.079 206.811 362.479 207.041 362.489C208.501 362.539 210.121 357.509 209.521 354.779C209.231 353.479 206.871 348.979 203.851 343.899ZM163.461 294.009C163.551 294.159 163.641 294.329 163.751 294.509C163.621 294.299 163.531 294.139 163.461 294.019C162.681 292.649 162.161 291.809 161.451 291.299C162.161 291.809 162.681 292.639 163.461 294.009Z" fill="white"/>
<path d="M42.9606 394.079C36.0706 392.879 26.6306 388.959 22.1606 385.459C19.2006 383.139 11.0506 375.329 9.46063 373.289C5.59063 368.319 -0.0693569 351.529 0.000643086 345.209C0.0806431 337.709 5.73064 321.639 9.68064 317.649C12.0806 315.239 19.3206 304.149 21.8606 299.009C23.2206 296.259 24.5806 293.789 24.9006 293.509C26.0506 292.499 31.9606 282.339 31.9606 281.369C31.9606 280.819 32.5906 279.729 33.3706 278.959C35.1906 277.139 89.5206 186.429 89.2706 185.619C89.1706 185.289 89.9006 184.109 90.8906 183.009C93.3006 180.349 123.081 130.759 123.711 128.369C123.971 127.349 124.491 126.509 124.851 126.509C125.211 126.509 126.401 124.819 127.481 122.759C128.571 120.699 129.831 118.559 130.291 118.009C131.191 116.919 139.401 103.419 151.551 83.0085C161.271 66.7085 160.891 67.2085 162.591 68.6185C163.341 69.2385 168.541 77.0085 174.151 85.8785C179.761 94.7485 185.381 102.999 186.651 104.209C187.921 105.419 188.961 107.169 188.961 108.099C188.961 109.019 191.821 114.329 195.311 119.889C225.781 168.429 228.081 172.419 226.871 174.749C225.311 177.749 201.801 217.099 180.401 252.509L163.181 281.009L112.321 281.269C57.7906 281.559 55.5706 281.739 44.4606 286.929C38.4706 289.729 24.5606 299.439 25.3706 300.249C25.6906 300.569 26.7406 300.139 27.7006 299.289C30.6306 296.719 38.0606 293.309 45.4606 291.159C52.0706 289.229 55.1706 289.109 100.711 289.059C127.251 289.029 148.961 289.359 148.961 289.779C148.961 290.209 147.791 292.319 146.361 294.479C144.931 296.639 143.921 298.899 144.121 299.499C144.331 300.109 145.811 298.329 147.431 295.549L150.381 290.509H155.921C161.201 290.519 161.551 290.679 163.461 294.019C164.561 295.949 174.081 311.139 184.611 327.769C195.131 344.399 204.641 359.589 205.741 361.509C209.701 368.489 214.511 376.119 216.701 378.909C218.871 381.659 219.021 381.699 221.451 380.109C225.331 377.559 225.621 378.279 212.461 357.609C208.061 350.689 195.801 331.029 190.711 322.699C188.921 319.769 183.751 311.679 179.211 304.719C174.671 297.749 170.961 291.699 170.961 291.279C170.961 290.859 179.251 290.509 189.381 290.509H207.791L227.231 320.759C273.081 392.139 273.961 393.539 273.961 394.989C273.961 396.169 49.8806 395.289 42.9606 394.079ZM318.211 389.389C316.151 386.029 314.011 382.769 313.461 382.139C312.911 381.519 311.821 379.769 311.041 378.259C310.261 376.749 309.251 375.509 308.791 375.509C308.331 375.509 307.961 374.939 307.961 374.239C307.961 373.549 305.041 368.509 301.461 363.049C297.881 357.589 294.961 352.979 294.961 352.799C294.961 352.089 287.411 340.989 286.711 340.679C286.301 340.489 285.961 339.849 285.961 339.249C285.961 338.009 278.861 327.189 277.711 326.679C277.301 326.489 276.961 325.709 276.961 324.929C276.961 324.149 276.561 323.509 276.071 323.509C275.581 323.509 274.231 321.599 273.061 319.259C270.531 314.189 261.261 299.659 259.301 297.699C258.541 296.939 257.241 295.009 256.411 293.419L254.911 290.509L274.181 290.409C284.791 290.349 326.481 290.349 366.851 290.389L440.241 290.479L451.301 307.739C457.661 317.679 463.331 327.769 464.631 331.509C470.181 347.349 465.401 366.409 452.531 379.799C446.051 386.539 433.471 393.009 423.961 394.489C420.271 395.059 396.811 395.499 369.711 395.499L321.971 395.509L318.211 389.389ZM281.021 244.259C277.631 238.619 274.451 233.339 273.951 232.509C273.451 231.679 269.591 225.159 265.381 218.009C261.171 210.859 256.521 203.209 255.041 201.009C253.571 198.809 251.831 195.889 251.171 194.509C250.511 193.129 249.551 191.339 249.021 190.509C248.501 189.679 244.651 183.049 240.471 175.769C233.941 164.379 233.041 162.229 234.001 160.429C235.401 157.809 234.371 156.559 232.701 158.849C231.611 160.339 230.881 159.599 226.691 152.779C224.061 148.509 220.141 142.309 217.971 139.009C215.801 135.709 213.681 132.339 213.241 131.509C210.891 126.999 206.431 119.969 205.751 119.679C205.311 119.489 204.961 118.709 204.961 117.929C204.961 117.149 204.511 116.509 203.961 116.509C203.411 116.509 202.961 115.989 202.961 115.349C202.961 114.719 201.841 112.719 200.461 110.919C199.081 109.119 197.961 107.319 197.961 106.909C197.961 106.119 191.911 96.3185 190.911 95.5085C190.581 95.2385 188.991 92.6485 187.381 89.7585C185.771 86.8685 184.121 84.5085 183.711 84.5085C183.301 84.5085 182.961 83.9286 182.961 83.2086C182.961 82.4986 180.901 78.7886 178.391 74.9586C168.181 59.4086 167.791 58.6086 169.181 56.0486C169.891 54.7486 175.041 46.0985 180.641 36.8185C196.741 10.1285 205.421 3.43854 227.761 0.498535C235.111 -0.461465 236.611 -0.271452 249.561 3.19855C263.651 6.96855 278.771 23.8186 281.501 38.7686C282.251 42.8986 283.961 44.8385 283.961 41.5685C283.961 40.4385 284.381 39.5085 284.891 39.5085C286.201 39.5085 288.261 42.5685 301.031 63.5285C307.221 73.6885 315.701 87.5485 319.881 94.3185C329.241 109.519 340.621 128.179 352.931 148.509C358.091 157.029 366.201 170.309 370.941 178.009C383.191 197.909 405.631 235.229 411.121 244.849C415.631 252.749 415.711 253.029 413.621 253.659C412.431 254.019 383.501 254.359 349.321 254.409L287.171 254.509L281.021 244.259ZM242.211 147.259C245.321 141.829 246.141 139.509 244.951 139.509C244.031 139.509 237.991 149.249 237.971 150.759C237.941 152.779 240.031 151.059 242.211 147.259ZM263.811 111.489C270.731 99.8586 271.801 97.5085 270.211 97.5085C269.341 97.5085 254.961 121.159 254.961 122.579C254.961 125.329 257.381 122.309 263.811 111.489ZM280.761 81.0486C282.121 78.0586 280.531 76.5785 279.011 79.4185C278.431 80.4985 277.961 81.8585 277.961 82.4385C277.961 84.3785 279.621 83.5486 280.761 81.0486Z" fill="#FDFDFD"/>
</svg>
